<?xml version="1.0" encoding="utf-8" ?><svg xmlns="http://www.w3.org/2000/svg" xmlns:xlink="http://www.w3.org/1999/xlink" width="1024" height="1024" viewBox="0 0 1024 1024"><path fill="#1B7A4D" d="M496.813 251.69C503.324 251.14 509.882 251.637 516.236 253.164C529.452 256.332 557.019 273.922 570.225 281.618L620.208 310.498L661.999 334.942C677.11 343.676 706.742 358.687 717.108 370.786C724.166 378.969 729.089 388.773 731.439 399.321C734.011 411.395 733.09 435.512 733.066 448.619L733.133 553.203L733.161 586.797C733.187 593.222 733.036 602.144 733.844 608.283C734.618 614.125 736.639 619.734 739.77 624.727C748.987 639.507 765.21 647.891 782.635 644.311C788.023 643.179 793.099 640.667 798.208 638.603C828.002 626.568 862.58 638.423 879.151 666.035C888.08 681.183 890.672 699.242 886.363 716.29C882.068 733.004 870.44 748.106 855.565 756.809C840.146 766 821.692 768.645 804.312 764.154C779.918 757.55 761.435 737.598 756.713 712.77C754.588 701.064 757.386 694.428 750.432 682.715C744.469 672.873 734.811 665.83 723.617 663.162C705.962 658.776 694.148 667.177 679.796 675.784L576.289 736.798L545.812 754.654C534.057 761.537 524.16 768.098 510.366 770.415C483.366 774.951 463.696 760.844 441.524 747.877C424.204 737.624 406.828 727.464 389.398 717.397L327.906 681.897C314.98 674.432 300.371 666.952 288.888 657.565C261.919 635.52 266.398 603.012 266.447 572.266L266.365 500.492L266.496 441.704C266.491 414.591 263.57 394.865 282.944 372.624C286.308 368.697 290.172 365.229 294.439 362.308C304.058 355.73 320.328 346.725 330.86 340.552C353.776 326.957 376.802 313.548 399.936 300.326L447.07 272.624C464.152 262.564 476.4 253.129 496.813 251.69ZM459.423 467.358C434.954 467.434 408.338 466.85 384.126 467.485C383.998 485.625 383.972 503.766 384.048 521.906C384.074 529.967 383.842 540.295 384.211 548.218L431.893 548.194C440.374 548.192 451.12 547.923 459.492 548.439C459.568 573.401 459.04 600.547 459.745 625.254C484.159 626.598 514.648 625.517 539.545 625.501L540.373 625.206C541.236 600.311 540.09 573.739 540.539 548.613C565.61 547.945 591.165 548.921 616.148 548.418C616.612 540.469 616.466 531.03 616.235 523.046C615.706 504.771 616.857 485.685 616.02 467.514L540.474 467.48L540.241 394.425C530.975 393.826 519.683 394.025 510.271 394.029L462.008 394.2L459.826 394.565C459.294 396.374 459.525 410.498 459.488 413.167C459.238 431.094 459.781 449.473 459.423 467.358Z"/></svg>